<?xml version="1.0" standalone="no"?>
<!DOCTYPE svg PUBLIC "-//W3C//DTD SVG 20010904//EN"
 "http://www.w3.org/TR/2001/REC-SVG-20010904/DTD/svg10.dtd">
<svg version="1.0" xmlns="http://www.w3.org/2000/svg"
 width="153.000000pt" height="153.000000pt" viewBox="0 0 153.000000 153.000000"
 preserveAspectRatio="xMidYMid meet">
<metadata>
Created by potrace 1.14, written by Peter Selinger 2001-2017
</metadata>
<g transform="translate(0.000000,153.000000) scale(0.100000,-0.100000)"
fill="#000000" stroke="none">
<path d="M380 1352 c-12 -2 -15 -18 -13 -70 0 -37 2 -72 2 -77 1 -7 93 -11
272 -10 149 0 275 -2 279 -5 5 -3 -23 -53 -62 -110 -39 -58 -127 -188 -196
-290 -347 -512 -309 -447 -311 -523 l-2 -67 416 0 415 0 0 79 c0 54 -4 80 -12
83 -7 2 -140 3 -295 3 -165 -1 -283 2 -283 7 0 5 39 67 87 136 48 70 137 200
198 289 60 90 150 221 199 293 86 126 88 132 90 191 1 33 -3 63 -9 67 -9 6
-744 10 -775 4z"/>
</g>
</svg>
